<svg width="80" height="80" viewBox="0 0 55 55" fill="none" xmlns="http://www.w3.org/2000/svg">
  <style>
    @keyframes rotate {
      0%, 20% {
        transform: rotate(0deg);
      }
      80%, 100% {
        transform: rotate(360deg);
      }
    }
    .logo-container {
      animation: rotate 2s infinite ease-in-out;
      transform-origin: center;
    }
  </style>
  
  <g class="logo-container">
    <path fill-rule="evenodd" clip-rule="evenodd" d="M26.5788 0.0485962C26.4194 0.0874408 25.6367 0.224073 24.8395 0.352202C20.5239 1.04619 16.601 3.03712 13.2946 6.21155C10.5231 8.87211 8.74881 11.6401 7.63836 15.0347C7.03308 16.8849 6.48133 19.886 6.48365 21.3155C6.48481 22.0777 6.49389 22.0681 7.12835 20.6148C8.26026 18.0226 9.45458 16.315 11.4519 14.4333C13.7915 12.2294 16.2932 10.8323 19.4413 9.97213C20.8563 9.58562 21.5039 9.52841 24.3564 9.53827C27.3374 9.5487 27.7939 9.59682 29.2844 10.057C30.1879 10.336 31.3589 10.7562 31.8866 10.991L32.8464 11.4177L30.872 13.3108C29.7863 14.3521 28.8979 15.2529 28.8979 15.3126C28.8979 15.3723 30.8011 15.4212 33.1272 15.4212H37.3564L41.2439 11.564C43.3821 9.44261 45.1315 7.63102 45.1315 7.53826C45.1315 7.24103 42.3687 4.6941 41.1697 3.88629C38.7264 2.23993 35.9147 1.05913 32.9563 0.436848C31.6118 0.154114 27.239 -0.112193 26.5788 0.0485962ZM20.5802 12.1248C14.0409 13.5049 8.78707 19.256 7.53844 26.4011C7.27194 27.9266 7.27793 28.0689 7.65884 29.2033C9.39796 34.3847 13.4471 39.0831 18.3879 41.6537C26.7854 46.0226 36.898 44.5983 43.9719 38.0502L45.4214 36.7084L41.4613 32.7322L37.5013 28.7559H33.1552H28.809L30.6285 30.5829L32.4481 32.4102L31.8808 32.652C31.5247 32.8039 30.3433 32.897 28.7047 32.9024C26.4221 32.9098 25.9506 32.8547 24.9362 32.4612C21.4081 31.0933 19.0876 28.5648 18.0008 24.9039C17.5996 23.553 17.5961 20.7636 17.9938 19.2291C18.7139 16.4501 20.6478 13.9441 23.1715 12.5198C23.7701 12.182 24.2598 11.8705 24.2598 11.8276C24.2598 11.6326 22.0762 11.809 20.5802 12.1248Z" fill="url(#paint0_linear_10496_3298)"/>
    <path d="M28.7085 15.4632C28.7085 15.4632 31.5437 12.5168 32.3258 11.5347C33.1079 10.5525 37.0185 15.4632 37.0185 15.4632H28.7085Z" fill="#4D4C4F"/>
    <path fill-rule="evenodd" clip-rule="evenodd" d="M20.6751 12.1681C14.1359 13.5482 8.88202 19.2993 7.63339 26.4444C7.36689 27.9699 7.37288 28.1122 7.75379 29.2466C9.4929 34.428 13.542 39.1265 18.4828 41.697C26.8804 46.0659 36.9929 44.6416 44.0669 38.0935L45.5163 36.7517L41.5563 32.7755L37.5963 28.7992H33.2501H28.904L30.7235 30.6263L32.543 32.4535L31.9758 32.6953C31.6196 32.8472 30.4382 32.9403 28.7996 32.9457C26.5171 32.9531 26.0455 32.898 25.0311 32.5045C21.503 31.1366 19.1826 28.6081 18.0957 24.9472C17.6945 23.5964 17.691 20.8069 18.0888 19.2724C18.8088 16.4934 20.7428 13.9874 23.2665 12.5631C23.865 12.2253 24.3547 11.9138 24.3547 11.8709C24.3547 11.6759 22.1711 11.8523 20.6751 12.1681Z" fill="#248A64"/>
    <g opacity="0.5" filter="url(#filter0_f_10496_3298)">
      <path d="M22.4665 37.1054C23.4328 38.0717 24.9132 39.6178 27.0081 40.9705C29.1029 42.3233 32.0017 43.2226 32.3882 43.2896C32.7747 43.3567 35.8096 43.1415 35.8568 42.9997C35.9535 42.7099 30.4457 39.811 28.2232 37.4919C26.0008 35.1728 25.2277 34.2066 24.648 33.7234C24.0682 33.2403 23.0053 32.4673 22.6188 32.0807C22.2323 31.6942 21.539 30.9212 20.2151 29.7617C18.8913 28.6021 16.1569 20.4854 15.9637 20.4854C15.7705 20.4854 17.925 29.2785 17.925 29.2785L19.4711 32.7571C19.4711 32.7571 21.5002 36.1391 22.4665 37.1054Z" fill="#096543"/>
    </g>
    <g filter="url(#filter1_d_10496_3298)">
      <path d="M21.3054 14.0469C22.3417 13.1173 24.66 12.0468 24.3703 11.8536C24.0805 11.6604 22.5846 11.9486 21.5681 12.1143C20.5087 12.287 20.0097 12.3997 18.9864 12.7234C17.4243 13.2174 16.4461 13.7308 15.0939 14.6559C14.1844 15.2783 13.7741 15.6436 12.9681 16.3952C12.0491 17.2523 11.5927 17.8032 10.842 18.8109C9.92187 20.0461 9.43739 21.0747 8.81311 22.4828C7.90054 24.5411 7.35335 27.8296 7.45058 28.3127C7.5478 28.7959 8.03026 30.0521 8.32244 30.7284C8.75079 31.7201 9.2641 32.7147 9.97235 33.8849C10.8604 35.3523 11.4716 36.1442 12.6779 37.3636C14.1426 38.844 15.2322 39.6063 16.9327 40.7961L16.9566 40.8128C18.4413 41.8517 19.6022 42.1965 21.2706 42.9036C23.6361 43.9062 25.1667 44.0007 27.7259 44.1586L27.7447 44.1598C29.9698 44.2971 31.2505 44.2578 33.4458 43.8699C34.906 43.6119 36.1514 42.8421 35.9581 42.7455C35.7649 42.6489 35.1924 42.913 34.702 42.9036C33.2262 42.8754 33.2633 43.1288 31.8379 42.7455C30.5984 42.4121 29.9824 41.9826 28.8424 41.3927C27.7158 40.8097 27.0665 40.4955 26.0402 39.75C24.7442 38.8086 24.1296 38.1264 23.0448 36.9478C21.6953 35.4818 20.9277 34.627 19.9527 32.8894C18.5744 30.4334 18.099 28.8209 17.7302 26.0288C17.4634 24.0086 17.3718 22.8168 17.7302 20.8109C18.0094 19.2485 18.2217 18.3365 18.9864 16.9457C19.6849 15.6754 20.2263 15.015 21.3054 14.0469Z" fill="url(#paint1_linear_10496_3298)"/>
    </g>
    <path d="M32.5725 32.4687L28.9006 28.7969C28.9006 28.7969 36.1478 28.6035 37.5972 28.7969C39.0466 28.9902 32.5725 32.4687 32.5725 32.4687Z" fill="#4E4D50"/>
    <path d="M13.0532 13.0453C8.70498 16.3307 6.67578 21.7419 6.67578 21.7419C6.67578 21.7419 7.32169 16.9211 8.70498 14.2049C9.96209 11.7364 10.8625 10.2958 13.0532 8.60044C17.1159 5.4565 20.8695 5.47202 26.0014 5.7017C28.8037 5.82711 31.594 6.60302 34.7946 8.02067C37.3784 9.16512 40.7856 12.0791 40.7856 12.0791L37.1137 15.5577C37.1137 15.5577 34.5727 12.43 32.3789 11.2094C29.9636 9.8656 28.2767 9.64599 25.5183 9.4701C20.4644 9.14781 17.4015 9.76 13.0532 13.0453Z" fill="url(#paint2_linear_10496_3298)"/>
  </g>
  
  <defs>
    <filter id="filter0_f_10496_3298" x="11.9734" y="16.5074" width="27.8627" height="30.7729" filterUnits="userSpaceOnUse" color-interpolation-filters="sRGB">
      <feFlood flood-opacity="0" result="BackgroundImageFix"/>
      <feBlend mode="normal" in="SourceGraphic" in2="BackgroundImageFix" result="shape"/>
      <feGaussianBlur stdDeviation="1.989" result="effect1_foregroundBlur_10496_3298"/>
    </filter>
    <filter id="filter1_d_10496_3298" x="0.00995255" y="1.43481" width="43.3976" height="47.3016" filterUnits="userSpaceOnUse" color-interpolation-filters="sRGB">
      <feFlood flood-opacity="0" result="BackgroundImageFix"/>
      <feColorMatrix in="SourceAlpha" type="matrix" values="0 0 0 0 0 0 0 0 0 0 0 0 0 0 0 0 0 0 127 0" result="hardAlpha"/>
      <feOffset dy="-2.925"/>
      <feGaussianBlur stdDeviation="3.71475"/>
      <feComposite in2="hardAlpha" operator="out"/>
      <feColorMatrix type="matrix" values="0 0 0 0 0 0 0 0 0 0 0 0 0 0 0 0 0 0 0.25 0"/>
      <feBlend mode="normal" in2="BackgroundImageFix" result="effect1_dropShadow_10496_3298"/>
      <feBlend mode="normal" in="SourceGraphic" in2="effect1_dropShadow_10496_3298" result="shape"/>
    </filter>
    <linearGradient id="paint0_linear_10496_3298" x1="45.4214" y1="-2.9296" x2="42.163" y2="44.0359" gradientUnits="userSpaceOnUse">
      <stop offset="0.005" stop-color="#6CB69A"/>
      <stop offset="1" stop-color="#0C7B52"/>
    </linearGradient>
    <linearGradient id="paint1_linear_10496_3298" x1="32.9965" y1="0.382608" x2="42.0227" y2="58.7579" gradientUnits="userSpaceOnUse">
      <stop stop-color="#B4E2D1"/>
      <stop offset="0.744" stop-color="#0C7B52"/>
    </linearGradient>
    <linearGradient id="paint2_linear_10496_3298" x1="36.3847" y1="-0.700054" x2="36.5428" y2="14.1864" gradientUnits="userSpaceOnUse">
      <stop stop-color="#B4E2D1"/>
      <stop offset="1" stop-color="#0C7B52"/>
    </linearGradient>
  </defs>
</svg>